<?xml version="1.0" encoding="UTF-8" standalone="no"?>
<svg width="14px" height="15px" viewBox="0 0 14 15" version="1.1" xmlns="http://www.w3.org/2000/svg" xmlns:xlink="http://www.w3.org/1999/xlink" xmlns:sketch="http://www.bohemiancoding.com/sketch/ns">
    <!-- Generator: Sketch 3.5.2 (25235) - http://www.bohemiancoding.com/sketch -->
    <title>Group 2</title>
    <desc>Created with Sketch.</desc>
    <defs></defs>
    <g id="Danielshiffman.net" stroke="none" stroke-width="1" fill="none" fill-rule="evenodd" sketch:type="MSPage">
        <g id="Homepage-layout" sketch:type="MSArtboardGroup" transform="translate(-38.000000, -42.000000)" fill="#363636">
            <g id="Group-2" sketch:type="MSLayerGroup" transform="translate(38.000000, 42.000000)">
                <path d="M4,1.5 C4,0.671572875 4.67165598,0 5.49710104,0 L12.502899,0 C13.329725,0 14,0.665797234 14,1.5 C14,2.32842712 13.328344,3 12.502899,3 L5.49710104,3 C4.67027497,3 4,2.33420277 4,1.5 Z M0,7.5 C0,6.67157288 0.671655983,6 1.49710104,6 L8.50289896,6 C9.32972503,6 10,6.66579723 10,7.5 C10,8.32842712 9.32834402,9 8.50289896,9 L1.49710104,9 C0.670274966,9 0,8.33420277 0,7.5 Z M4,13.5 C4,12.6715729 4.67165598,12 5.49710104,12 L12.502899,12 C13.329725,12 14,12.6657972 14,13.5 C14,14.3284271 13.328344,15 12.502899,15 L5.49710104,15 C4.67027497,15 4,14.3342028 4,13.5 Z" id="Rectangle-14" sketch:type="MSShapeGroup" transform="translate(7.000000, 7.500000) scale(-1, 1) translate(-7.000000, -7.500000) "></path>
            </g>
        </g>
    </g>
</svg>